<svg id="图层_1" data-name="图层 1" xmlns="http://www.w3.org/2000/svg" viewBox="0 0 40 40"><title>我的订单</title><path d="M20.23,4h0l16.12,6.37L19.93,16.22h-.11L3.7,9.86,20.15,4h.08m0-2a2.07,2.07,0,0,0-.78.14L.76,8.78a1.1,1.1,0,0,0,0,2.06l18.33,7.25a2.06,2.06,0,0,0,.77.14,2.11,2.11,0,0,0,.78-.14l18.69-6.63a1.11,1.11,0,0,0,0-2.07L21,2.15A2.06,2.06,0,0,0,20.23,2Z"/><path d="M19.79,27.9a3.14,3.14,0,0,1-1.13-.21l-18-7.13a1,1,0,0,1,.74-1.86l18,7.13a1.25,1.25,0,0,0,.83,0l18.51-6.57a1,1,0,1,1,.67,1.89L20.89,27.7A3.19,3.19,0,0,1,19.79,27.9Z"/><path d="M19.79,37.92a3.36,3.36,0,0,1-1.13-.2l-18-7.13a1,1,0,0,1-.56-1.3,1,1,0,0,1,1.3-.56l18,7.12a1.13,1.13,0,0,0,.83,0l18.51-6.56a1,1,0,1,1,.67,1.88l-18.5,6.56A3.19,3.19,0,0,1,19.79,37.92Z"/></svg>